<mxfile host="app.diagrams.net" modified="2023-08-15T07:22:46.913Z" agent="Mozilla/5.0 (Windows NT 10.0; Win64; x64) AppleWebKit/537.36 (KHTML, like Gecko) Chrome/115.0.0.0 Safari/537.36" etag="lKIp3yvCUFo5kb4j1E9s" version="21.6.1" type="github">
  <diagram name="Page-1" id="D52-W9V_1HZJJ_ThG35Y">
    <mxGraphModel dx="1412" dy="574" grid="1" gridSize="10" guides="1" tooltips="1" connect="1" arrows="1" fold="1" page="1" pageScale="1" pageWidth="827" pageHeight="1169" math="0" shadow="0">
      <root>
        <mxCell id="0" />
        <mxCell id="1" parent="0" />
        <mxCell id="-yysK_Rw4c3LHwtMGwAV-1" value="Pool" style="swimlane;html=1;childLayout=stackLayout;startSize=20;rounded=0;shadow=0;labelBackgroundColor=none;strokeWidth=1;fontFamily=Verdana;fontSize=8;align=center;fillColor=#FFFFFF;" vertex="1" parent="1">
          <mxGeometry x="50" y="40" width="870" height="1470" as="geometry" />
        </mxCell>
        <mxCell id="-yysK_Rw4c3LHwtMGwAV-2" value="Bộ phần có nhu cầu" style="swimlane;html=1;startSize=20;" vertex="1" parent="-yysK_Rw4c3LHwtMGwAV-1">
          <mxGeometry y="20" width="160" height="1450" as="geometry" />
        </mxCell>
        <mxCell id="-yysK_Rw4c3LHwtMGwAV-3" value="&lt;font face=&quot;Times New Roman&quot; style=&quot;font-size: 12px;&quot;&gt;Phiếu nhu cầu vật tư&lt;/font&gt;" style="rounded=1;whiteSpace=wrap;html=1;shadow=0;labelBackgroundColor=none;strokeWidth=1;fontFamily=Verdana;fontSize=8;align=center;" vertex="1" parent="-yysK_Rw4c3LHwtMGwAV-2">
          <mxGeometry x="10" y="90" width="110" height="60" as="geometry" />
        </mxCell>
        <mxCell id="-yysK_Rw4c3LHwtMGwAV-4" style="edgeStyle=orthogonalEdgeStyle;rounded=0;orthogonalLoop=1;jettySize=auto;html=1;" edge="1" parent="-yysK_Rw4c3LHwtMGwAV-2" source="-yysK_Rw4c3LHwtMGwAV-5" target="-yysK_Rw4c3LHwtMGwAV-3">
          <mxGeometry relative="1" as="geometry" />
        </mxCell>
        <mxCell id="-yysK_Rw4c3LHwtMGwAV-5" value="" style="strokeWidth=2;html=1;shape=mxgraph.flowchart.start_2;whiteSpace=wrap;" vertex="1" parent="-yysK_Rw4c3LHwtMGwAV-2">
          <mxGeometry x="52.5" y="30" width="25" height="25" as="geometry" />
        </mxCell>
        <mxCell id="-yysK_Rw4c3LHwtMGwAV-6" value="Phòng mua hàng" style="swimlane;html=1;startSize=20;fillColor=#FFFFFF;" vertex="1" parent="-yysK_Rw4c3LHwtMGwAV-1">
          <mxGeometry x="160" y="20" width="190" height="1450" as="geometry" />
        </mxCell>
        <mxCell id="-yysK_Rw4c3LHwtMGwAV-7" style="edgeStyle=orthogonalEdgeStyle;rounded=0;orthogonalLoop=1;jettySize=auto;html=1;entryX=0.5;entryY=0;entryDx=0;entryDy=0;" edge="1" parent="-yysK_Rw4c3LHwtMGwAV-6" source="-yysK_Rw4c3LHwtMGwAV-8" target="-yysK_Rw4c3LHwtMGwAV-20">
          <mxGeometry relative="1" as="geometry" />
        </mxCell>
        <mxCell id="-yysK_Rw4c3LHwtMGwAV-8" value="&lt;font face=&quot;Times New Roman&quot; style=&quot;font-size: 12px;&quot;&gt;Đơn hàng mua - PO&lt;/font&gt;" style="rounded=1;whiteSpace=wrap;html=1;shadow=0;labelBackgroundColor=none;strokeWidth=1;fontFamily=Verdana;fontSize=8;align=center;" vertex="1" parent="-yysK_Rw4c3LHwtMGwAV-6">
          <mxGeometry x="40" y="590" width="100" height="60" as="geometry" />
        </mxCell>
        <mxCell id="-yysK_Rw4c3LHwtMGwAV-11" style="edgeStyle=orthogonalEdgeStyle;rounded=0;orthogonalLoop=1;jettySize=auto;html=1;entryX=0.5;entryY=0;entryDx=0;entryDy=0;" edge="1" parent="-yysK_Rw4c3LHwtMGwAV-6" source="-yysK_Rw4c3LHwtMGwAV-12" target="-yysK_Rw4c3LHwtMGwAV-33">
          <mxGeometry relative="1" as="geometry" />
        </mxCell>
        <mxCell id="-yysK_Rw4c3LHwtMGwAV-12" value="&lt;font face=&quot;Times New Roman&quot; style=&quot;font-size: 12px;&quot;&gt;So sánh giá/ Chọn nhà cung cấp&lt;/font&gt;" style="rounded=1;whiteSpace=wrap;html=1;shadow=0;labelBackgroundColor=none;strokeWidth=1;fontFamily=Verdana;fontSize=8;align=center;" vertex="1" parent="-yysK_Rw4c3LHwtMGwAV-6">
          <mxGeometry x="40" y="420" width="100" height="50" as="geometry" />
        </mxCell>
        <mxCell id="-yysK_Rw4c3LHwtMGwAV-13" style="edgeStyle=orthogonalEdgeStyle;rounded=0;orthogonalLoop=1;jettySize=auto;html=1;fontFamily=Times New Roman;fontSize=12;" edge="1" parent="-yysK_Rw4c3LHwtMGwAV-6" source="-yysK_Rw4c3LHwtMGwAV-14" target="-yysK_Rw4c3LHwtMGwAV-16">
          <mxGeometry relative="1" as="geometry" />
        </mxCell>
        <mxCell id="-yysK_Rw4c3LHwtMGwAV-14" value="&lt;font face=&quot;Times New Roman&quot; style=&quot;font-size: 12px;&quot;&gt;Đề nghị báo giá&lt;/font&gt;" style="rounded=1;whiteSpace=wrap;html=1;shadow=0;labelBackgroundColor=none;strokeWidth=1;fontFamily=Verdana;fontSize=8;align=center;" vertex="1" parent="-yysK_Rw4c3LHwtMGwAV-6">
          <mxGeometry x="40" y="190" width="100" height="60" as="geometry" />
        </mxCell>
        <mxCell id="-yysK_Rw4c3LHwtMGwAV-71" style="edgeStyle=orthogonalEdgeStyle;rounded=0;orthogonalLoop=1;jettySize=auto;html=1;" edge="1" parent="-yysK_Rw4c3LHwtMGwAV-6" source="-yysK_Rw4c3LHwtMGwAV-16" target="-yysK_Rw4c3LHwtMGwAV-12">
          <mxGeometry relative="1" as="geometry" />
        </mxCell>
        <mxCell id="-yysK_Rw4c3LHwtMGwAV-16" value="&lt;br&gt;Báo giá từ nhà cung cấp" style="html=1;strokeWidth=2;shape=manualInput;whiteSpace=wrap;rounded=1;size=27;arcSize=11;" vertex="1" parent="-yysK_Rw4c3LHwtMGwAV-6">
          <mxGeometry x="40" y="280" width="100" height="70" as="geometry" />
        </mxCell>
        <mxCell id="-yysK_Rw4c3LHwtMGwAV-17" style="edgeStyle=orthogonalEdgeStyle;rounded=0;orthogonalLoop=1;jettySize=auto;html=1;entryX=0.5;entryY=0;entryDx=0;entryDy=0;entryPerimeter=0;fontFamily=Times New Roman;fontSize=12;exitX=0.407;exitY=0.9;exitDx=0;exitDy=0;exitPerimeter=0;" edge="1" parent="-yysK_Rw4c3LHwtMGwAV-6" source="-yysK_Rw4c3LHwtMGwAV-18" target="-yysK_Rw4c3LHwtMGwAV-23">
          <mxGeometry relative="1" as="geometry" />
        </mxCell>
        <mxCell id="-yysK_Rw4c3LHwtMGwAV-18" value="&lt;font face=&quot;Times New Roman&quot;&gt;&amp;nbsp;PO ký tên / đóng dấu&lt;/font&gt;" style="strokeWidth=2;html=1;shape=mxgraph.flowchart.document2;whiteSpace=wrap;size=0.25;" vertex="1" parent="-yysK_Rw4c3LHwtMGwAV-6">
          <mxGeometry x="40" y="780" width="100" height="60" as="geometry" />
        </mxCell>
        <mxCell id="-yysK_Rw4c3LHwtMGwAV-19" value="" style="group" vertex="1" connectable="0" parent="-yysK_Rw4c3LHwtMGwAV-6">
          <mxGeometry x="40" y="680" width="100" height="60" as="geometry" />
        </mxCell>
        <mxCell id="-yysK_Rw4c3LHwtMGwAV-20" value="" style="verticalLabelPosition=bottom;verticalAlign=top;html=1;shape=process;whiteSpace=wrap;rounded=1;size=0.14;arcSize=6;" vertex="1" parent="-yysK_Rw4c3LHwtMGwAV-19">
          <mxGeometry width="100" height="60" as="geometry" />
        </mxCell>
        <mxCell id="-yysK_Rw4c3LHwtMGwAV-21" value="&lt;font style=&quot;font-size: 12px;&quot; face=&quot;Times New Roman&quot;&gt;Quy trình duyệt&lt;/font&gt;" style="text;html=1;strokeColor=none;fillColor=none;align=center;verticalAlign=middle;whiteSpace=wrap;rounded=0;" vertex="1" parent="-yysK_Rw4c3LHwtMGwAV-19">
          <mxGeometry x="20" y="15" width="60" height="30" as="geometry" />
        </mxCell>
        <mxCell id="-yysK_Rw4c3LHwtMGwAV-22" value="" style="group" vertex="1" connectable="0" parent="-yysK_Rw4c3LHwtMGwAV-6">
          <mxGeometry x="40" y="870" width="100" height="60" as="geometry" />
        </mxCell>
        <mxCell id="-yysK_Rw4c3LHwtMGwAV-23" value="" style="verticalLabelPosition=bottom;verticalAlign=top;html=1;shape=card;whiteSpace=wrap;size=20;arcSize=12;" vertex="1" parent="-yysK_Rw4c3LHwtMGwAV-22">
          <mxGeometry width="100" height="60" as="geometry" />
        </mxCell>
        <mxCell id="-yysK_Rw4c3LHwtMGwAV-24" value="Gửi PO cho nhà cung cấp" style="text;html=1;strokeColor=none;fillColor=none;align=center;verticalAlign=middle;whiteSpace=wrap;rounded=0;" vertex="1" parent="-yysK_Rw4c3LHwtMGwAV-22">
          <mxGeometry x="14" y="20" width="70" height="27" as="geometry" />
        </mxCell>
        <mxCell id="-yysK_Rw4c3LHwtMGwAV-25" value="Đóng đơn hàng" style="strokeWidth=2;html=1;shape=mxgraph.flowchart.start_2;whiteSpace=wrap;" vertex="1" parent="-yysK_Rw4c3LHwtMGwAV-6">
          <mxGeometry x="65" y="1300" width="60" height="50" as="geometry" />
        </mxCell>
        <mxCell id="-yysK_Rw4c3LHwtMGwAV-26" value="" style="group" vertex="1" connectable="0" parent="-yysK_Rw4c3LHwtMGwAV-6">
          <mxGeometry x="40" y="90" width="100" height="60" as="geometry" />
        </mxCell>
        <mxCell id="-yysK_Rw4c3LHwtMGwAV-27" value="" style="verticalLabelPosition=bottom;verticalAlign=top;html=1;shape=process;whiteSpace=wrap;rounded=1;size=0.14;arcSize=6;" vertex="1" parent="-yysK_Rw4c3LHwtMGwAV-26">
          <mxGeometry width="100" height="60" as="geometry" />
        </mxCell>
        <mxCell id="-yysK_Rw4c3LHwtMGwAV-28" value="Quy trình duyệt" style="text;html=1;strokeColor=none;fillColor=none;align=center;verticalAlign=middle;whiteSpace=wrap;rounded=0;" vertex="1" parent="-yysK_Rw4c3LHwtMGwAV-26">
          <mxGeometry x="20" y="15" width="60" height="30" as="geometry" />
        </mxCell>
        <mxCell id="-yysK_Rw4c3LHwtMGwAV-29" style="edgeStyle=orthogonalEdgeStyle;rounded=0;orthogonalLoop=1;jettySize=auto;html=1;entryX=0.5;entryY=0;entryDx=0;entryDy=0;entryPerimeter=0;fontFamily=Times New Roman;fontSize=12;exitX=0.5;exitY=1;exitDx=0;exitDy=0;" edge="1" parent="-yysK_Rw4c3LHwtMGwAV-6" source="-yysK_Rw4c3LHwtMGwAV-20" target="-yysK_Rw4c3LHwtMGwAV-18">
          <mxGeometry relative="1" as="geometry">
            <mxPoint x="90" y="750" as="sourcePoint" />
          </mxGeometry>
        </mxCell>
        <mxCell id="-yysK_Rw4c3LHwtMGwAV-30" style="edgeStyle=orthogonalEdgeStyle;rounded=0;orthogonalLoop=1;jettySize=auto;html=1;fontFamily=Times New Roman;fontSize=12;exitX=0.5;exitY=1;exitDx=0;exitDy=0;" edge="1" parent="-yysK_Rw4c3LHwtMGwAV-6" source="-yysK_Rw4c3LHwtMGwAV-27" target="-yysK_Rw4c3LHwtMGwAV-14">
          <mxGeometry relative="1" as="geometry">
            <mxPoint x="90" y="150" as="sourcePoint" />
          </mxGeometry>
        </mxCell>
        <mxCell id="-yysK_Rw4c3LHwtMGwAV-31" style="edgeStyle=orthogonalEdgeStyle;rounded=0;orthogonalLoop=1;jettySize=auto;html=1;" edge="1" parent="-yysK_Rw4c3LHwtMGwAV-6" source="-yysK_Rw4c3LHwtMGwAV-32" target="-yysK_Rw4c3LHwtMGwAV-8">
          <mxGeometry relative="1" as="geometry" />
        </mxCell>
        <mxCell id="-yysK_Rw4c3LHwtMGwAV-32" value="" style="verticalLabelPosition=bottom;verticalAlign=top;html=1;shape=process;whiteSpace=wrap;rounded=1;size=0.14;arcSize=6;" vertex="1" parent="-yysK_Rw4c3LHwtMGwAV-6">
          <mxGeometry x="40" y="500" width="100" height="60" as="geometry" />
        </mxCell>
        <mxCell id="-yysK_Rw4c3LHwtMGwAV-33" value="&lt;font style=&quot;font-size: 12px;&quot; face=&quot;Times New Roman&quot;&gt;Quy trình duyệt&lt;/font&gt;" style="text;html=1;strokeColor=none;fillColor=none;align=center;verticalAlign=middle;whiteSpace=wrap;rounded=0;" vertex="1" parent="-yysK_Rw4c3LHwtMGwAV-6">
          <mxGeometry x="60" y="515" width="60" height="30" as="geometry" />
        </mxCell>
        <mxCell id="-yysK_Rw4c3LHwtMGwAV-51" value="&lt;font style=&quot;font-size: 12px;&quot; face=&quot;Times New Roman&quot;&gt;Hóa đơn mua hàng&lt;/font&gt;" style="rounded=1;whiteSpace=wrap;html=1;shadow=0;labelBackgroundColor=none;strokeWidth=1;fontFamily=Verdana;fontSize=8;align=center;fillColor=#FFFFFF;" vertex="1" parent="-yysK_Rw4c3LHwtMGwAV-6">
          <mxGeometry x="45" y="980" width="100" height="100" as="geometry" />
        </mxCell>
        <mxCell id="-yysK_Rw4c3LHwtMGwAV-52" value="&lt;font style=&quot;font-size: 12px;&quot; face=&quot;Times New Roman&quot;&gt;Phiếu xuất trả lại nhà cung cấp&lt;/font&gt;" style="rounded=1;whiteSpace=wrap;html=1;shadow=0;labelBackgroundColor=none;strokeWidth=1;fontFamily=Verdana;fontSize=8;align=center;fillColor=#FFFFFF;" vertex="1" parent="-yysK_Rw4c3LHwtMGwAV-6">
          <mxGeometry x="45" y="1160" width="100" height="60" as="geometry" />
        </mxCell>
        <mxCell id="-yysK_Rw4c3LHwtMGwAV-75" value="return" style="html=1;verticalAlign=bottom;endArrow=open;dashed=1;endSize=8;edgeStyle=elbowEdgeStyle;elbow=vertical;curved=0;rounded=0;exitX=0.5;exitY=1;exitDx=0;exitDy=0;entryX=0.5;entryY=0;entryDx=0;entryDy=0;" edge="1" parent="-yysK_Rw4c3LHwtMGwAV-6" source="-yysK_Rw4c3LHwtMGwAV-51" target="-yysK_Rw4c3LHwtMGwAV-52">
          <mxGeometry relative="1" as="geometry">
            <mxPoint x="340" y="900" as="sourcePoint" />
            <mxPoint x="260" y="900" as="targetPoint" />
          </mxGeometry>
        </mxCell>
        <mxCell id="-yysK_Rw4c3LHwtMGwAV-34" value="QC/ Phòng có nhu cầu" style="swimlane;html=1;startSize=20;" vertex="1" parent="-yysK_Rw4c3LHwtMGwAV-1">
          <mxGeometry x="350" y="20" width="160" height="1450" as="geometry" />
        </mxCell>
        <mxCell id="-yysK_Rw4c3LHwtMGwAV-35" value="Không đạt" style="edgeStyle=orthogonalEdgeStyle;rounded=0;orthogonalLoop=1;jettySize=auto;html=1;entryX=0.5;entryY=0;entryDx=0;entryDy=0;" edge="1" parent="-yysK_Rw4c3LHwtMGwAV-34" source="-yysK_Rw4c3LHwtMGwAV-36" target="-yysK_Rw4c3LHwtMGwAV-37">
          <mxGeometry relative="1" as="geometry" />
        </mxCell>
        <mxCell id="-yysK_Rw4c3LHwtMGwAV-36" value="Kiểm định" style="rhombus;whiteSpace=wrap;html=1;rounded=0;shadow=0;labelBackgroundColor=none;strokeWidth=1;fontFamily=Verdana;fontSize=8;align=center;" vertex="1" parent="-yysK_Rw4c3LHwtMGwAV-34">
          <mxGeometry x="40" y="680" width="80" height="60" as="geometry" />
        </mxCell>
        <mxCell id="-yysK_Rw4c3LHwtMGwAV-37" value="&lt;font face=&quot;Times New Roman&quot; style=&quot;font-size: 12px;&quot;&gt;Trả lại nhà cung cấp thực tế&lt;/font&gt;" style="rounded=1;whiteSpace=wrap;html=1;shadow=0;labelBackgroundColor=none;strokeWidth=1;fontFamily=Verdana;fontSize=8;align=center;" vertex="1" parent="-yysK_Rw4c3LHwtMGwAV-34">
          <mxGeometry x="30" y="800" width="100" height="60" as="geometry" />
        </mxCell>
        <mxCell id="-yysK_Rw4c3LHwtMGwAV-38" value="" style="group;fillColor=#CCFF99;" vertex="1" connectable="0" parent="-yysK_Rw4c3LHwtMGwAV-34">
          <mxGeometry x="30" y="510" width="100" height="60" as="geometry" />
        </mxCell>
        <mxCell id="-yysK_Rw4c3LHwtMGwAV-39" value="" style="verticalLabelPosition=bottom;verticalAlign=top;html=1;shape=process;whiteSpace=wrap;rounded=1;size=0.14;arcSize=6;fillColor=#D4FF8A;" vertex="1" parent="-yysK_Rw4c3LHwtMGwAV-38">
          <mxGeometry width="100" height="60" as="geometry" />
        </mxCell>
        <mxCell id="-yysK_Rw4c3LHwtMGwAV-40" value="Chờ giao hàng" style="text;html=1;strokeColor=none;fillColor=none;align=center;verticalAlign=middle;whiteSpace=wrap;rounded=0;" vertex="1" parent="-yysK_Rw4c3LHwtMGwAV-38">
          <mxGeometry x="20" y="15" width="60" height="30" as="geometry" />
        </mxCell>
        <mxCell id="-yysK_Rw4c3LHwtMGwAV-41" style="edgeStyle=orthogonalEdgeStyle;rounded=0;orthogonalLoop=1;jettySize=auto;html=1;entryX=0.5;entryY=0;entryDx=0;entryDy=0;" edge="1" parent="-yysK_Rw4c3LHwtMGwAV-34" source="-yysK_Rw4c3LHwtMGwAV-39" target="-yysK_Rw4c3LHwtMGwAV-36">
          <mxGeometry relative="1" as="geometry">
            <Array as="points">
              <mxPoint x="80" y="640" />
              <mxPoint x="80" y="640" />
            </Array>
          </mxGeometry>
        </mxCell>
        <mxCell id="-yysK_Rw4c3LHwtMGwAV-42" value="Quản lý kho" style="swimlane;html=1;startSize=20;" vertex="1" parent="-yysK_Rw4c3LHwtMGwAV-1">
          <mxGeometry x="510" y="20" width="160" height="1450" as="geometry" />
        </mxCell>
        <mxCell id="-yysK_Rw4c3LHwtMGwAV-43" value="Phiếu nhập mua&amp;nbsp;&lt;br&gt;(Nhập kho thực tế)" style="rounded=1;whiteSpace=wrap;html=1;shadow=0;labelBackgroundColor=none;strokeWidth=1;fontFamily=Verdana;fontSize=8;align=center;" vertex="1" parent="-yysK_Rw4c3LHwtMGwAV-42">
          <mxGeometry x="20" y="850" width="100" height="60" as="geometry" />
        </mxCell>
        <mxCell id="-yysK_Rw4c3LHwtMGwAV-44" style="edgeStyle=orthogonalEdgeStyle;rounded=0;orthogonalLoop=1;jettySize=auto;html=1;" edge="1" parent="-yysK_Rw4c3LHwtMGwAV-1" source="-yysK_Rw4c3LHwtMGwAV-36" target="-yysK_Rw4c3LHwtMGwAV-43">
          <mxGeometry relative="1" as="geometry" />
        </mxCell>
        <mxCell id="-yysK_Rw4c3LHwtMGwAV-45" value="Đạt chất lượng" style="edgeLabel;html=1;align=center;verticalAlign=middle;resizable=0;points=[];fontSize=12;fontFamily=Times New Roman;" vertex="1" connectable="0" parent="-yysK_Rw4c3LHwtMGwAV-44">
          <mxGeometry x="-0.3505" y="2" relative="1" as="geometry">
            <mxPoint as="offset" />
          </mxGeometry>
        </mxCell>
        <mxCell id="-yysK_Rw4c3LHwtMGwAV-47" style="edgeStyle=orthogonalEdgeStyle;rounded=0;orthogonalLoop=1;jettySize=auto;html=1;entryX=0.001;entryY=0.571;entryDx=0;entryDy=0;entryPerimeter=0;fontFamily=Times New Roman;fontSize=12;" edge="1" parent="-yysK_Rw4c3LHwtMGwAV-1" source="-yysK_Rw4c3LHwtMGwAV-3" target="-yysK_Rw4c3LHwtMGwAV-27">
          <mxGeometry relative="1" as="geometry" />
        </mxCell>
        <mxCell id="-yysK_Rw4c3LHwtMGwAV-48" style="edgeStyle=orthogonalEdgeStyle;rounded=0;orthogonalLoop=1;jettySize=auto;html=1;entryX=0;entryY=0.5;entryDx=0;entryDy=0;fontFamily=Times New Roman;fontSize=12;" edge="1" parent="-yysK_Rw4c3LHwtMGwAV-1" source="-yysK_Rw4c3LHwtMGwAV-20" target="-yysK_Rw4c3LHwtMGwAV-39">
          <mxGeometry relative="1" as="geometry" />
        </mxCell>
        <mxCell id="-yysK_Rw4c3LHwtMGwAV-53" value="Kế toán" style="swimlane;html=1;startSize=20;" vertex="1" parent="-yysK_Rw4c3LHwtMGwAV-1">
          <mxGeometry x="670" y="20" width="200" height="1450" as="geometry" />
        </mxCell>
        <mxCell id="-yysK_Rw4c3LHwtMGwAV-54" value="" style="group" vertex="1" connectable="0" parent="-yysK_Rw4c3LHwtMGwAV-53">
          <mxGeometry x="70" y="1049" width="100" height="60" as="geometry" />
        </mxCell>
        <mxCell id="-yysK_Rw4c3LHwtMGwAV-55" value="" style="verticalLabelPosition=bottom;verticalAlign=top;html=1;shape=process;whiteSpace=wrap;rounded=1;size=0.14;arcSize=6;" vertex="1" parent="-yysK_Rw4c3LHwtMGwAV-54">
          <mxGeometry width="100" height="60" as="geometry" />
        </mxCell>
        <mxCell id="-yysK_Rw4c3LHwtMGwAV-56" value="Thanh toán" style="text;html=1;strokeColor=none;fillColor=none;align=center;verticalAlign=middle;whiteSpace=wrap;rounded=0;" vertex="1" parent="-yysK_Rw4c3LHwtMGwAV-54">
          <mxGeometry x="20" y="15" width="60" height="30" as="geometry" />
        </mxCell>
        <mxCell id="-yysK_Rw4c3LHwtMGwAV-65" value="Thanh toán ứng trước tiền hàng (nếu có)" style="rounded=1;whiteSpace=wrap;html=1;shadow=0;labelBackgroundColor=none;strokeWidth=1;fontFamily=Verdana;fontSize=8;align=center;" vertex="1" parent="-yysK_Rw4c3LHwtMGwAV-53">
          <mxGeometry x="70" y="910" width="100" height="60" as="geometry" />
        </mxCell>
        <mxCell id="-yysK_Rw4c3LHwtMGwAV-81" value="" style="endArrow=block;dashed=1;endFill=0;endSize=12;html=1;rounded=0;exitX=0.5;exitY=1;exitDx=0;exitDy=0;" edge="1" parent="-yysK_Rw4c3LHwtMGwAV-53" source="-yysK_Rw4c3LHwtMGwAV-65">
          <mxGeometry width="160" relative="1" as="geometry">
            <mxPoint x="-290" y="900" as="sourcePoint" />
            <mxPoint x="120" y="1050" as="targetPoint" />
          </mxGeometry>
        </mxCell>
        <mxCell id="-yysK_Rw4c3LHwtMGwAV-60" style="edgeStyle=orthogonalEdgeStyle;rounded=0;orthogonalLoop=1;jettySize=auto;html=1;entryX=1;entryY=0.5;entryDx=0;entryDy=0;" edge="1" parent="-yysK_Rw4c3LHwtMGwAV-1" source="-yysK_Rw4c3LHwtMGwAV-43" target="-yysK_Rw4c3LHwtMGwAV-51">
          <mxGeometry relative="1" as="geometry">
            <Array as="points">
              <mxPoint x="580" y="1050" />
            </Array>
          </mxGeometry>
        </mxCell>
        <mxCell id="-yysK_Rw4c3LHwtMGwAV-74" value="" style="endArrow=open;endSize=12;dashed=1;html=1;rounded=0;exitX=1;exitY=0.25;exitDx=0;exitDy=0;exitPerimeter=0;entryX=0.406;entryY=-0.013;entryDx=0;entryDy=0;entryPerimeter=0;" edge="1" parent="-yysK_Rw4c3LHwtMGwAV-1" source="-yysK_Rw4c3LHwtMGwAV-18" target="-yysK_Rw4c3LHwtMGwAV-65">
          <mxGeometry width="160" relative="1" as="geometry">
            <mxPoint x="380" y="920" as="sourcePoint" />
            <mxPoint x="540" y="920" as="targetPoint" />
            <Array as="points">
              <mxPoint x="781" y="815" />
            </Array>
          </mxGeometry>
        </mxCell>
        <mxCell id="-yysK_Rw4c3LHwtMGwAV-78" value="" style="endArrow=block;dashed=1;endFill=0;endSize=12;html=1;rounded=0;exitX=0;exitY=0.5;exitDx=0;exitDy=0;entryX=0.5;entryY=0;entryDx=0;entryDy=0;" edge="1" parent="-yysK_Rw4c3LHwtMGwAV-1" source="-yysK_Rw4c3LHwtMGwAV-65" target="-yysK_Rw4c3LHwtMGwAV-51">
          <mxGeometry width="160" relative="1" as="geometry">
            <mxPoint x="364" y="1000" as="sourcePoint" />
            <mxPoint x="524" y="1000" as="targetPoint" />
            <Array as="points">
              <mxPoint x="255" y="960" />
            </Array>
          </mxGeometry>
        </mxCell>
        <mxCell id="-yysK_Rw4c3LHwtMGwAV-79" style="edgeStyle=orthogonalEdgeStyle;rounded=0;orthogonalLoop=1;jettySize=auto;html=1;entryX=0;entryY=0.5;entryDx=0;entryDy=0;exitX=0.5;exitY=1;exitDx=0;exitDy=0;" edge="1" parent="-yysK_Rw4c3LHwtMGwAV-1" source="-yysK_Rw4c3LHwtMGwAV-51" target="-yysK_Rw4c3LHwtMGwAV-55">
          <mxGeometry relative="1" as="geometry">
            <Array as="points">
              <mxPoint x="518" y="1100" />
              <mxPoint x="518" y="1090" />
            </Array>
          </mxGeometry>
        </mxCell>
        <mxCell id="-yysK_Rw4c3LHwtMGwAV-82" style="edgeStyle=orthogonalEdgeStyle;rounded=0;orthogonalLoop=1;jettySize=auto;html=1;entryX=1;entryY=0.5;entryDx=0;entryDy=0;entryPerimeter=0;" edge="1" parent="-yysK_Rw4c3LHwtMGwAV-1" source="-yysK_Rw4c3LHwtMGwAV-56" target="-yysK_Rw4c3LHwtMGwAV-25">
          <mxGeometry relative="1" as="geometry">
            <Array as="points">
              <mxPoint x="790" y="1290" />
              <mxPoint x="522" y="1290" />
              <mxPoint x="522" y="1345" />
            </Array>
          </mxGeometry>
        </mxCell>
      </root>
    </mxGraphModel>
  </diagram>
</mxfile>
